<?xml version="1.0" encoding="utf-8"?>
<!-- Generator: Adobe Illustrator 26.3.1, SVG Export Plug-In . SVG Version: 6.00 Build 0)  -->
<svg version="1.1" id="Layer_1" xmlns="http://www.w3.org/2000/svg" xmlns:xlink="http://www.w3.org/1999/xlink" x="0px" y="0px"
	 viewBox="0 0 399 71.2" style="enable-background:new 0 0 399 71.2;" xml:space="preserve">
<style type="text/css">
	.st0{fill:#FFFFFF;}
	.st1{fill:#FF7A7F;}
</style>
<g id="Layer_2_00000047782333126951700060000015214929214164886942_">
	<g id="Layer_1-2">
		<path class="st0" d="M219.7,47.2c2,0.1,4-0.5,5.6-1.7c1.5-1.2,2.6-2.7,3.2-4.5c0.7-2.1,1.1-4.3,1.1-6.5c0-2.2-0.3-4.4-1.1-6.4
			c-0.6-1.8-1.8-3.4-3.4-4.6c-1.7-1.2-3.7-1.8-5.8-1.7c-1.9-0.1-3.8,0.5-5.4,1.6c-1.5,1.1-2.5,2.7-3.1,4.5c-0.7,2.1-1,4.4-1,6.7
			c0,2.3,0.3,4.5,1,6.7c0.6,1.8,1.7,3.3,3.1,4.5C215.7,46.8,217.7,47.3,219.7,47.2z M202.3,71.2V15.1h7.7v27.3h1.1v28.9L202.3,71.2z
			 M221,55c-3.4,0.1-6.7-0.8-9.5-2.7c-2.6-1.8-4.6-4.4-5.8-7.3c-1.3-3.3-2-6.9-1.9-10.5c0-3.6,0.6-7.2,2-10.5
			c1.2-2.9,3.1-5.5,5.7-7.3c2.7-1.9,6-2.8,9.3-2.7c3.4-0.1,6.7,0.9,9.5,2.7c2.7,1.8,4.9,4.3,6.3,7.3c1.5,3.3,2.3,6.9,2.2,10.5
			c0.1,3.6-0.7,7.2-2.2,10.5c-1.4,3-3.5,5.5-6.2,7.3C227.6,54.2,224.3,55.1,221,55z M164.4,36.9v-6.6h26.8v6.6H164.4z M177.8,55
			c-3.6,0.1-7.2-0.8-10.4-2.6c-2.9-1.7-5.4-4.1-7-7.1c-1.7-3.2-2.6-6.8-2.5-10.4c-0.1-3.8,0.8-7.6,2.4-11c1.5-3,3.9-5.6,6.8-7.3
			c3.1-1.8,6.6-2.7,10.1-2.6c3.6-0.1,7.2,0.9,10.3,2.8c2.9,1.9,5.1,4.7,6.3,8c1.4,3.9,2,8,1.6,12.1h-8.6v-3.2c0-4.2-0.8-7.3-2.2-9.2
			s-3.8-2.9-6.9-2.9c-3.6,0-6.2,1.1-7.9,3.3s-2.6,5.4-2.6,9.6c0,3.9,0.9,7,2.6,9.1s4.2,3.2,7.6,3.2c1.9,0.1,3.8-0.4,5.5-1.4
			c1.6-1,2.8-2.4,3.6-4.1l8.6,2.6c-1.4,3.4-3.8,6.2-6.9,8.2C184.9,54,181.4,55,177.8,55z M126.6,21.9v-6.8h27.1v6.8H126.6z
			 M153.7,53.9c-2.5,0.5-5,0.7-7.6,0.6c-2.3,0-4.5-0.5-6.6-1.3c-1.9-0.8-3.5-2.3-4.4-4.1c-0.9-1.6-1.3-3.3-1.4-5.2
			c-0.1-1.7-0.1-3.7-0.1-5.9V4.2h8.6v33.3c0,1.6,0,2.9,0,4.1c0,1,0.3,2,0.8,2.9c0.9,1.5,2.4,2.4,4.1,2.4c2.2,0.2,4.3,0.1,6.5-0.3
			L153.7,53.9z M102.8,55c-3.5,0-7-0.6-10.3-2c-2.9-1.2-5.5-3.2-7.5-5.6c-2-2.6-3.3-5.6-3.7-8.8l9-1.4c0.6,2.9,2.3,5.4,4.7,7.1
			c2.4,1.7,5.3,2.6,8.3,2.5c1.8,0,3.5-0.3,5.2-0.9c1.5-0.5,2.9-1.4,4-2.5c1-1.1,1.6-2.6,1.5-4.1c0-0.7-0.1-1.4-0.4-2
			c-0.2-0.6-0.6-1.2-1.1-1.7c-0.5-0.5-1.1-1-1.8-1.3c-0.8-0.4-1.6-0.8-2.5-1l-13.4-4c-1.3-0.4-2.5-0.8-3.7-1.3
			c-1.4-0.6-2.6-1.4-3.8-2.3c-1.2-1-2.2-2.3-2.9-3.7c-0.8-1.8-1.2-3.8-1.1-5.8c-0.1-3,0.8-5.9,2.5-8.4c1.7-2.3,4.1-4.1,6.8-5.1
			c3.1-1.2,6.3-1.7,9.6-1.7c3.3,0,6.5,0.6,9.5,1.8c2.7,1.1,5.1,2.9,7,5.1c1.9,2.4,3.3,5.2,4,8.2l-9.3,1.6c-0.3-1.7-1.1-3.3-2.2-4.6
			c-1.1-1.3-2.4-2.3-4-3c-1.6-0.7-3.3-1-5-1.1c-1.6,0-3.3,0.2-4.8,0.8c-1.4,0.5-2.6,1.3-3.6,2.3c-0.9,1-1.4,2.2-1.3,3.5
			c0,1.2,0.4,2.3,1.2,3.1c0.8,0.8,1.8,1.5,2.8,1.9c1.1,0.5,2.3,0.9,3.4,1.2l9.3,2.6c1.3,0.3,2.7,0.8,4.3,1.4
			c1.6,0.6,3.2,1.4,4.6,2.4c1.5,1.1,2.7,2.5,3.6,4.1c1,2,1.5,4.2,1.4,6.4c0.1,2.5-0.5,4.9-1.7,7.1c-1.1,2-2.6,3.7-4.5,5
			c-2,1.4-4.2,2.4-6.5,3C107.9,54.6,105.3,55,102.8,55z"/>
		<path class="st0" d="M367.9,36.9v-6.6h26.7v6.6H367.9z M381.3,55c-3.6,0.1-7.2-0.8-10.4-2.6c-2.9-1.7-5.4-4.1-7-7.1
			c-1.7-3.2-2.6-6.8-2.5-10.4c-0.1-3.8,0.8-7.6,2.5-11c1.5-3,3.9-5.6,6.8-7.3c3.1-1.8,6.6-2.7,10.1-2.6c3.6-0.1,7.2,0.9,10.3,2.8
			c2.9,1.9,5.1,4.7,6.3,8c1.4,3.9,2,8,1.5,12.1h-8.6v-3.2c0-4.2-0.8-7.3-2.2-9.2s-3.8-2.9-6.9-2.9c-3.5,0-6.2,1.1-7.9,3.3
			s-2.6,5.4-2.6,9.6c0,3.9,0.9,7,2.6,9.1s4.2,3.2,7.6,3.2c1.9,0.1,3.8-0.4,5.5-1.4c1.6-1,2.8-2.4,3.6-4.1l8.6,2.6
			c-1.4,3.4-3.8,6.2-6.9,8.2C388.5,54,384.9,55,381.3,55z M339.7,55c-4.8,0-8.7-1.1-11.7-3.2c-3-2.2-5-5.5-5.5-9.1l8.9-1.4
			c0.4,1.8,1.5,3.5,3,4.5c1.7,1.2,3.8,1.7,5.9,1.7c1.7,0.1,3.4-0.3,4.8-1.2c1.1-0.8,1.8-2.1,1.7-3.4c0-0.8-0.2-1.5-0.6-2.1
			c-0.8-0.8-1.7-1.3-2.7-1.6c-1.4-0.5-3.6-1.1-6.5-1.9c-2.7-0.6-5.3-1.6-7.8-2.8c-1.7-0.8-3.1-2-4.1-3.6c-0.9-1.5-1.3-3.2-1.3-5
			c-0.1-2.3,0.6-4.5,1.9-6.3c1.4-1.9,3.2-3.3,5.4-4.1c2.6-1,5.3-1.5,8.1-1.4c2.7,0,5.4,0.4,8,1.4c2.2,0.8,4.2,2.2,5.7,4
			c1.4,1.7,2.4,3.8,2.7,6.1l-8.8,1.5c-0.2-1.6-1-3-2.3-3.9c-1.5-1-3.3-1.6-5.1-1.6c-1.7-0.2-3.4,0.1-4.9,0.9
			c-1.2,0.6-1.9,1.8-1.9,3.1c0,0.7,0.3,1.4,0.8,1.9c0.9,0.7,1.9,1.3,3,1.6c1.5,0.5,3.8,1.2,6.8,1.9c2.6,0.6,5.1,1.5,7.4,2.7
			c3.4,1.6,5.5,5,5.3,8.8c0.2,3.6-1.4,7-4.3,9.2C348.6,53.9,344.7,55,339.7,55z M305.2,53.9V15.1h8.7v38.9L305.2,53.9z M305.2,9.1
			v-8h8.7v8H305.2z M255,53.9L243.1,15l8.5,0.1l7.6,25l7.7-25h7.3l7.7,25l7.6-25h8.5l-11.9,38.8h-6.8l-8.8-26.8l-8.8,26.8H255z"/>
		<polygon class="st1" points="42.5,0 25.7,0 0,25.8 17.4,25.8 		"/>
		<polygon class="st1" points="54.3,22.6 37.5,22.6 11.8,48.5 29.2,48.5 		"/>
		<polygon class="st1" points="66.2,45.3 49.3,45.3 23.7,71.1 41,71.1 		"/>
	</g>
</g>
</svg>
